# xmcd
#
# Track frame offsets:
#  150
#  11780
#  26298
#  39990
#  50772
#  62279
#  72324
#  84136
#  98047
#  110216
#  122167
#  140115
#  150967
#  167301
#  177025
#  187327
#  198147
#  212410
#  224657
#  237023
#  246893
#  256619
#
# Disc length: 3571 seconds
#
# Revision: 0
# Processed by: cddbd v1.5.1PL2 Copyright (c) Steve Scherf et al.
# Submitted via: Collectorz.com_Music_Collector 6.9
#
DISCID=250df116
DTITLE=Bobby Goldsboro - It's Too Late - Honey - Summer (The First Time) - A Butterfly For Bucky
DYEAR=2006
DGENRE=
TTITLE0=It's Too Late
TTITLE1=as tears go by
TTITLE2=don't think twice
TTITLE3=baby's gone
TTITLE4=when your love has gone
TTITLE5=nothin's bad as bein' lonely
TTITLE6=yesterday
TTITLE7=blue autumn (album version)
TTITLE8=michelle
TTITLE9=i just don't love you anymore
TTITLE10=Honey
TTITLE11=run to me
TTITLE12=with pen in hand
TTITLE13=pardon me miss
TTITLE14=why don't you believe me
TTITLE15=pledge of love
TTITLE16=little green apples
TTITLE17=Love arrestor
TTITLE18=by the time i get to phoenix
TTITLE19=people beautiful
TTITLE20=A woman
TTITLE21=Blue Autumn
EXTD=
EXTT0=
EXTT1=
EXTT2=
EXTT3=
EXTT4=
EXTT5=
EXTT6=
EXTT7=
EXTT8=
EXTT9=
EXTT10=
EXTT11=
EXTT12=
EXTT13=
EXTT14=
EXTT15=
EXTT16=
EXTT17=
EXTT18=
EXTT19=
EXTT20=
EXTT21=
PLAYORDER=
